<svg xmlns="http://www.w3.org/2000/svg" width="48" height="48" viewBox="0 0 24 24"><g fill="none"><path fill="#B0B0B0" d="M11.55 3.006h.59c2.784 1.012 5.567 2.024 8.329 3.053q.378.135.528.675v5.713L12.45 21h-.602l-8.334-3.048c-.225-.078-.393-.309-.511-.68V11.57L11.55 3z"/><path fill="#d36853" d="m19.872 6.97l-7.675 7.732a5 5 0 0 0-.32-.016a.9.9 0 0 1-.31-.057a536 536 0 0 1-6.934-2.513c-.224-.085-.32-.242-.303-.461l7.524-7.513a.2.2 0 0 1 .09-.05a.2.2 0 0 1 .1.005l7.828 2.868z"/><path fill="#8e3216" d="M13.844 9.158c-1.135-.782-1.27-2.103-1.405-2.508a3.52 3.52 0 0 1 2.423.112c.911.366 1.159 1.266.366 1.918a2.05 2.05 0 0 1-1.384.478"/><path fill="#681c0a" d="M12.433 6.65a3.7 3.7 0 0 0 1.703 2.13a.17.17 0 0 1 .085.147a.17.17 0 0 1-.079.14a.6.6 0 0 1-.292.09c-.928.102-3.003-.483-2.317-1.765c.157-.304.46-.546.9-.742"/><path fill="#8e3216" d="M19.871 6.953v4.841c0 .17.017.327-.1.44l-7.772 7.658v-5.19zm-8.716 5.218c-1.012-.691-1.642-1.495-1.9-2.406a3.06 3.06 0 0 1 2.277.056c.99.422 1.35 1.383.293 2.075c-.315.202-.54.298-.664.28z"/><path fill="#681c0a" d="M9.255 9.765q.388 1.366 1.907 2.413q-1.383.337-2.402-.304c-1.057-.658-.523-1.766.495-2.109"/><path fill="#aa472d" d="M4.335 11.654q-.026.337.303.46c1.434.535 3.74 1.373 6.928 2.509q.142.058.31.056h.123v5.213c-2.547-.94-5.252-1.89-7.766-2.784c-.146-.056-.106-.157-.106-.309v-4.802c0-.124.01-.236.208-.343"/></g></svg>